<svg width="10" height="9" viewBox="0 0 10 9" fill="none" xmlns="http://www.w3.org/2000/svg">
<path d="M4.99878 8.60596C2.72505 8.60596 0.881836 6.76272 0.881836 4.48902C0.881836 2.21529 2.72505 0.37207 4.99878 0.37207C7.27249 0.37207 9.11573 2.21529 9.11573 4.48902C9.11573 6.76272 7.27249 8.60596 4.99878 8.60596ZM4.99878 7.78257C6.81777 7.78257 8.29234 6.30801 8.29234 4.48902C8.29234 2.67003 6.81777 1.19546 4.99878 1.19546C3.1798 1.19546 1.70522 2.67003 1.70522 4.48902C1.70522 6.30801 3.1798 7.78257 4.99878 7.78257ZM5.41048 3.87147V5.7241H5.82217V6.54749H4.17539V5.7241H4.58709V4.69486H4.17539V3.87147H5.41048ZM5.61632 2.84224C5.61632 3.1833 5.33983 3.45978 4.99878 3.45978C4.65773 3.45978 4.38124 3.1833 4.38124 2.84224C4.38124 2.50118 4.65773 2.2247 4.99878 2.2247C5.33983 2.2247 5.61632 2.50118 5.61632 2.84224Z" fill="#5D5D5D"/>
</svg>
